<svg width="100" height="100" viewBox="0 0 100 100" fill="none" xmlns="http://www.w3.org/2000/svg">
<rect width="100" height="100" rx="20" fill="white"/>
<path d="M21.032 29.196C19.184 29.196 17.4853 28.7667 15.936 27.908C14.4053 27.0493 13.1827 25.8547 12.268 24.324C11.372 22.7747 10.924 21.0387 10.924 19.116C10.924 17.1933 11.372 15.4667 12.268 13.936C13.1827 12.4053 14.4053 11.2107 15.936 10.352C17.4853 9.49333 19.184 9.064 21.032 9.064C22.88 9.064 24.5693 9.49333 26.1 10.352C27.6493 11.2107 28.8627 12.4053 29.74 13.936C30.636 15.4667 31.084 17.1933 31.084 19.116C31.084 21.0387 30.636 22.7747 29.74 24.324C28.844 25.8547 27.6307 27.0493 26.1 27.908C24.5693 28.7667 22.88 29.196 21.032 29.196ZM21.032 24.828C22.6 24.828 23.8507 24.3053 24.784 23.26C25.736 22.2147 26.212 20.8333 26.212 19.116C26.212 17.38 25.736 15.9987 24.784 14.972C23.8507 13.9267 22.6 13.404 21.032 13.404C19.4453 13.404 18.176 13.9173 17.224 14.944C16.2907 15.9707 15.824 17.3613 15.824 19.116C15.824 20.852 16.2907 22.2427 17.224 23.288C18.176 24.3147 19.4453 24.828 21.032 24.828ZM43.2677 13.208C45.0971 13.208 46.5531 13.8053 47.6357 15C48.7371 16.176 49.2877 17.8 49.2877 19.872V29H44.5277V20.516C44.5277 19.4707 44.2571 18.6587 43.7157 18.08C43.1744 17.5013 42.4464 17.212 41.5317 17.212C40.6171 17.212 39.8891 17.5013 39.3477 18.08C38.8064 18.6587 38.5357 19.4707 38.5357 20.516V29H33.7477V13.376H38.5357V15.448C39.0211 14.7573 39.6744 14.216 40.4957 13.824C41.3171 13.4133 42.2411 13.208 43.2677 13.208ZM67.3429 20.936C67.3429 21.384 67.3149 21.8507 67.2589 22.336H56.4229C56.4976 23.3067 56.8056 24.0533 57.3469 24.576C57.9069 25.08 58.5882 25.332 59.3909 25.332C60.5856 25.332 61.4162 24.828 61.8829 23.82H66.9789C66.7176 24.8467 66.2416 25.7707 65.5509 26.592C64.8789 27.4133 64.0296 28.0573 63.0029 28.524C61.9762 28.9907 60.8282 29.224 59.5589 29.224C58.0282 29.224 56.6656 28.8973 55.4709 28.244C54.2762 27.5907 53.3429 26.6573 52.6709 25.444C51.9989 24.2307 51.6629 22.812 51.6629 21.188C51.6629 19.564 51.9896 18.1453 52.6429 16.932C53.3149 15.7187 54.2482 14.7853 55.4429 14.132C56.6376 13.4787 58.0096 13.152 59.5589 13.152C61.0709 13.152 62.4149 13.4693 63.5909 14.104C64.7669 14.7387 65.6816 15.644 66.3349 16.82C67.0069 17.996 67.3429 19.368 67.3429 20.936ZM62.4429 19.676C62.4429 18.8547 62.1629 18.2013 61.6029 17.716C61.0429 17.2307 60.3429 16.988 59.5029 16.988C58.7002 16.988 58.0189 17.2213 57.4589 17.688C56.9176 18.1547 56.5816 18.8173 56.4509 19.676H62.4429ZM19.1 39.344C21.172 39.344 22.9827 39.7547 24.532 40.576C26.0813 41.3973 27.276 42.5547 28.116 44.048C28.9747 45.5227 29.404 47.2307 29.404 49.172C29.404 51.0947 28.9747 52.8027 28.116 54.296C27.276 55.7893 26.072 56.9467 24.504 57.768C22.9547 58.5893 21.1533 59 19.1 59H11.736V39.344H19.1ZM18.792 54.856C20.6027 54.856 22.012 54.3613 23.02 53.372C24.028 52.3827 24.532 50.9827 24.532 49.172C24.532 47.3613 24.028 45.952 23.02 44.944C22.012 43.936 20.6027 43.432 18.792 43.432H16.524V54.856H18.792ZM46.8077 50.936C46.8077 51.384 46.7798 51.8507 46.7238 52.336H35.8878C35.9624 53.3067 36.2704 54.0533 36.8118 54.576C37.3718 55.08 38.0531 55.332 38.8558 55.332C40.0504 55.332 40.8811 54.828 41.3478 53.82H46.4438C46.1824 54.8467 45.7064 55.7707 45.0158 56.592C44.3438 57.4133 43.4944 58.0573 42.4678 58.524C41.4411 58.9907 40.2931 59.224 39.0238 59.224C37.4931 59.224 36.1304 58.8973 34.9358 58.244C33.7411 57.5907 32.8078 56.6573 32.1358 55.444C31.4638 54.2307 31.1278 52.812 31.1278 51.188C31.1278 49.564 31.4544 48.1453 32.1078 46.932C32.7798 45.7187 33.7131 44.7853 34.9078 44.132C36.1024 43.4787 37.4744 43.152 39.0238 43.152C40.5358 43.152 41.8798 43.4693 43.0558 44.104C44.2318 44.7387 45.1464 45.644 45.7998 46.82C46.4718 47.996 46.8077 49.368 46.8077 50.936ZM41.9078 49.676C41.9078 48.8547 41.6278 48.2013 41.0678 47.716C40.5078 47.2307 39.8078 46.988 38.9678 46.988C38.1651 46.988 37.4838 47.2213 36.9238 47.688C36.3824 48.1547 36.0464 48.8173 35.9158 49.676H41.9078ZM56.3617 54.52L59.7497 43.376H64.8457L59.3017 59H53.3937L47.8497 43.376H52.9737L56.3617 54.52ZM23.132 89L16.524 80.32V89H11.736V69.344H16.524V77.968L23.076 69.344H28.704L21.088 78.976L28.984 89H23.132ZM33.6674 71.752C32.8274 71.752 32.1368 71.5093 31.5954 71.024C31.0728 70.52 30.8114 69.904 30.8114 69.176C30.8114 68.4293 31.0728 67.8133 31.5954 67.328C32.1368 66.824 32.8274 66.572 33.6674 66.572C34.4888 66.572 35.1608 66.824 35.6834 67.328C36.2248 67.8133 36.4954 68.4293 36.4954 69.176C36.4954 69.904 36.2248 70.52 35.6834 71.024C35.1608 71.5093 34.4888 71.752 33.6674 71.752ZM36.0474 73.376V89H31.2594V73.376H36.0474ZM48.2253 84.94V89H45.7893C44.0533 89 42.6999 88.58 41.7293 87.74C40.7586 86.8813 40.2733 85.4907 40.2733 83.568V77.352H38.3693V73.376H40.2733V69.568H45.0613V73.376H48.1973V77.352H45.0613V83.624C45.0613 84.0907 45.1733 84.4267 45.3973 84.632C45.6213 84.8373 45.9946 84.94 46.5173 84.94H48.2253Z" fill="black"/>
<rect x="69" y="69" width="20" height="20" rx="10" fill="#D9D9D9"/>
</svg>
